<svg version="1.1" id="Layer_1" xmlns="http://www.w3.org/2000/svg" xmlns:xlink="http://www.w3.org/1999/xlink" x="0px" y="0px"
	 width="100%" viewBox="0 0 1200 1200" enable-background="new 0 0 1200 1200" xml:space="preserve">
<path fill="#FFFFFF" opacity="1.000000" stroke="none" 
	d="
M644.000000,1201.000000 
	C429.333344,1201.000000 215.166672,1201.000000 1.000000,1201.000000 
	C1.000000,801.000000 1.000000,401.000000 1.000000,1.000000 
	C401.000000,1.000000 801.000000,1.000000 1201.000000,1.000000 
	C1201.000000,401.000000 1201.000000,801.000000 1201.000000,1201.000000 
	C1015.500000,1201.000000 830.000000,1201.000000 644.000000,1201.000000 
M400.505585,531.891968 
	C395.731140,531.891968 390.956665,531.891968 386.212677,531.891968 
	C386.212677,529.633118 386.212677,528.017090 386.212677,525.879150 
	C407.130676,525.879150 427.860870,525.879150 448.589630,525.879150 
	C448.589630,523.625854 448.589630,521.912476 448.589630,519.887207 
	C427.636932,519.887207 407.029175,519.887207 386.250031,519.887207 
	C386.250031,517.840271 386.250031,516.114563 386.250031,513.935913 
	C407.201080,513.935913 427.923370,513.935913 448.929993,513.935913 
	C448.816803,511.740814 448.727875,510.016205 448.640533,508.322357 
	C425.617371,508.322357 403.037598,508.322357 380.344116,508.322357 
	C380.344116,553.652039 380.344116,598.693481 380.344116,643.818054 
	C403.255676,643.818054 425.857330,643.818054 448.646423,643.818054 
	C448.646423,641.897766 448.646423,640.180969 448.646423,637.946228 
	C427.648895,637.946228 406.916260,637.946228 386.217865,637.946228 
	C386.217865,635.805786 386.217865,634.192932 386.217865,632.080017 
	C407.148041,632.080017 427.885193,632.080017 448.911255,632.080017 
	C448.805450,629.840210 448.724792,628.132202 448.625092,626.021606 
	C427.513885,626.021606 406.935150,626.021606 385.992950,626.021606 
	C386.093567,623.868469 386.173004,622.167969 386.265747,620.183105 
	C407.396851,620.183105 428.012146,620.183105 448.757294,620.183105 
	C448.757294,618.241211 448.757294,616.612366 448.757294,614.411255 
	C427.858948,614.411255 407.134186,614.411255 386.342316,614.411255 
	C386.342316,606.278503 386.342316,598.722656 386.342316,590.748169 
	C397.089264,590.748169 407.513977,590.748169 417.933685,590.748169 
	C417.933685,588.694702 417.933685,587.069824 417.933685,584.882690 
	C407.223999,584.882690 396.672607,584.882690 386.204773,584.882690 
	C386.204773,582.696167 386.204773,581.075073 386.204773,578.867798 
	C396.918396,578.867798 407.460175,578.867798 417.865448,578.867798 
	C417.865448,576.665649 417.865448,575.055237 417.865448,573.012085 
	C407.214172,573.012085 396.791626,573.012085 386.321716,573.012085 
	C386.321716,570.851685 386.321716,569.134155 386.321716,567.009460 
	C397.032288,567.009460 407.445892,567.009460 418.144684,567.009460 
	C418.031250,564.853149 417.940430,563.127319 417.824707,560.927429 
	C406.992004,560.927429 396.599457,560.927429 386.298737,560.927429 
	C386.298737,552.997375 386.298737,545.573486 386.298737,537.588379 
	C407.287262,537.588379 427.997681,537.588379 448.665375,537.588379 
	C448.665375,535.424988 448.665375,533.833618 448.665375,531.891968 
	C432.769226,531.891968 417.136688,531.891968 400.505585,531.891968 
M794.829407,642.602966 
	C820.128601,654.891052 844.338867,652.453186 865.769592,634.748596 
	C887.246704,617.005737 894.579773,593.244995 886.557434,566.525757 
	C878.436035,539.476807 859.062561,523.973511 830.997192,520.325195 
	C801.131653,516.442932 771.306763,536.506897 762.282227,565.879395 
	C753.160583,595.567993 766.505432,627.488953 794.829407,642.602966 
M965.012756,617.958801 
	C973.842651,617.929749 982.684753,618.182373 991.499390,617.800659 
	C1002.611511,617.319458 1012.770203,613.740417 1021.091370,606.172058 
	C1034.650269,593.839783 1039.433228,573.613708 1033.089355,556.814148 
	C1026.396240,539.089661 1009.167175,526.289795 990.866577,526.032349 
	C970.542969,525.746399 950.213196,525.901184 929.886108,525.866882 
	C925.926697,525.860229 921.967285,525.865967 917.843018,525.865967 
	C917.843018,565.439453 917.843018,604.542419 917.843018,643.758057 
	C919.757385,643.758057 921.509827,643.758057 923.743103,643.758057 
	C923.743103,606.426636 923.743103,569.358704 923.743103,532.148804 
	C947.512390,532.148804 970.888855,530.863831 994.063232,532.478760 
	C1022.118225,534.433777 1038.446045,566.371338 1024.906860,590.659790 
	C1017.148499,604.577759 1004.782349,611.498230 988.913940,611.932251 
	C980.491211,612.162598 972.057007,611.973083 962.966370,611.973083 
	C963.458313,614.429932 963.795776,616.115540 965.012756,617.958801 
M696.323181,550.500244 
	C696.323181,542.385864 696.323181,534.271484 696.323181,526.206177 
	C694.051880,526.206177 692.300476,526.206177 690.137756,526.206177 
	C690.137756,539.952026 690.137756,553.366089 690.137756,566.922852 
	C676.304993,566.922852 662.888489,566.922852 648.942017,566.922852 
	C648.942017,553.177612 648.942017,539.641602 648.942017,526.200317 
	C646.666260,526.200317 644.927002,526.200317 643.334717,526.200317 
	C643.334717,565.616516 643.334717,604.706360 643.334717,644.057007 
	C645.382080,643.958862 647.111511,643.876038 649.231140,643.774475 
	C649.231140,627.914734 649.231140,612.496155 649.231140,597.129639 
	C663.079163,597.129639 676.508545,597.129639 690.387756,597.129639 
	C690.387756,612.818298 690.387756,628.243713 690.387756,643.727417 
	C692.584229,643.727417 694.324097,643.727417 696.322998,643.727417 
	C696.322998,612.792603 696.322998,582.146423 696.323181,550.500244 
M1012.400696,588.742493 
	C1005.922180,596.557373 997.653381,600.312500 987.461182,600.089355 
	C979.549683,599.916077 971.631348,600.054688 963.546875,600.054688 
	C963.546875,602.462891 963.546875,604.078918 963.546875,606.035339 
	C972.550293,606.035339 981.358215,606.236511 990.153870,605.993835 
	C1009.085876,605.471558 1023.926880,590.288391 1023.981812,571.647644 
	C1024.033813,554.045776 1008.826965,538.358704 990.521851,537.941528 
	C970.869507,537.493591 951.201660,537.725891 931.540466,537.685974 
	C930.913269,537.684753 930.285583,537.954468 929.561157,538.120056 
	C929.561157,573.375610 929.561157,608.480957 929.561157,643.792480 
	C931.534973,643.792480 933.283752,643.792480 935.440063,643.792480 
	C935.440063,610.456970 935.440063,577.355042 935.440063,544.159363 
	C936.441895,543.950500 937.072021,543.703308 937.701660,543.704712 
	C955.195923,543.743530 972.707581,543.335754 990.179932,543.983948 
	C1013.236816,544.839233 1025.183716,568.561707 1012.400696,588.742493 
M507.586609,620.853455 
	C516.658386,621.560120 525.771423,623.111755 534.787170,622.671143 
	C540.626343,622.385803 546.902954,620.141724 551.947083,617.072021 
	C559.386719,612.544617 558.532288,602.108704 551.035034,597.605042 
	C549.080078,596.430664 546.832092,595.275574 544.628784,595.068420 
	C537.200562,594.369934 529.694885,594.424561 522.289246,593.576355 
	C515.243103,592.769348 507.972382,592.080078 501.359070,589.752075 
	C490.364838,585.881897 483.656525,577.624878 482.213654,565.777893 
	C480.743561,553.707336 485.472931,544.382568 495.454010,537.635620 
	C509.451508,528.173584 525.168945,527.881714 541.067017,529.601013 
	C554.476746,531.051331 566.783386,535.750488 577.299011,544.511719 
	C578.878113,543.287231 580.151489,542.299805 581.898682,540.945007 
	C579.546448,539.076294 577.591309,537.341064 575.459106,535.860840 
	C566.563965,529.685547 556.613708,525.992432 546.006287,524.305542 
	C527.716370,521.397034 509.716309,521.854065 493.326447,531.830688 
	C481.650024,538.938171 475.541718,549.539429 476.043152,563.447510 
	C476.542877,577.308594 482.933228,588.127808 495.492676,593.590271 
	C503.504822,597.074951 512.678650,598.209351 521.463867,599.491333 
	C528.153381,600.467529 535.080627,599.690186 541.846924,600.302673 
	C547.772644,600.839111 550.883789,603.741516 550.859863,607.784851 
	C550.829834,612.864136 546.924988,614.606262 543.000488,615.431580 
	C528.739136,618.430786 514.533447,618.580200 501.112183,611.999390 
	C497.309570,610.134827 495.574127,611.191528 493.226196,614.844604 
	C498.048218,616.862366 502.443542,618.701477 507.586609,620.853455 
M536.922241,576.122375 
	C539.897949,576.436340 542.925293,576.502136 545.840332,577.108215 
	C557.185974,579.467102 567.083191,584.146545 571.985657,595.537048 
	C579.273560,612.469971 571.319519,630.136353 552.496643,636.536072 
	C526.424255,645.400391 501.808258,641.603516 479.027435,625.421509 
	C477.806671,626.318787 476.379852,627.367432 474.813385,628.518799 
	C475.617126,629.377319 476.133087,630.034546 476.751892,630.573914 
	C496.654999,647.921875 536.943298,652.345154 560.276672,639.756714 
	C574.705994,631.972046 581.625854,619.272705 580.152344,603.280762 
	C578.818970,588.810120 569.263306,577.349609 553.683655,573.054688 
	C546.724243,571.136169 539.298157,570.776245 532.047791,570.090210 
	C526.105530,569.527954 520.092590,569.729065 514.143677,569.214294 
	C510.001831,568.855896 506.225220,567.527893 505.811890,562.337097 
	C505.387939,557.012634 509.414276,555.199524 513.158386,554.344299 
	C527.380676,551.095703 541.601196,551.194641 555.054626,557.495422 
	C558.761658,559.231567 560.745117,558.845154 563.251404,555.183044 
	C559.515259,553.402283 556.092712,551.367615 552.407471,550.091675 
	C542.200806,546.557678 531.577637,545.325256 520.957458,547.089844 
	C515.235474,548.040527 509.240082,549.818176 504.372284,552.840271 
	C497.572021,557.062073 497.926666,566.764893 504.484772,571.436035 
	C506.960175,573.199219 510.125885,574.623474 513.105957,574.924377 
	C520.698303,575.691101 528.363403,575.737549 536.922241,576.122375 
M516.594666,541.611633 
	C534.889709,539.297852 552.404114,540.934570 568.259399,552.026672 
	C569.613831,550.863647 570.943848,549.721497 572.294067,548.562073 
	C566.560486,542.945496 558.229065,538.676880 546.731995,536.524780 
	C530.622742,533.509277 514.555420,532.863281 499.762665,541.738098 
	C491.398834,546.755859 487.038208,554.190308 487.946655,564.242432 
	C488.832397,574.043457 494.027893,581.147339 503.138428,583.932373 
	C510.944672,586.318726 519.348083,586.841003 527.524780,587.898926 
	C534.575684,588.811279 541.806335,588.714478 548.723206,590.174438 
	C555.388611,591.581299 560.209961,596.002930 562.036926,602.974243 
	C564.731628,613.256714 559.558472,622.379944 547.501709,626.018616 
	C528.389404,631.786438 509.641235,630.247192 492.177521,620.035400 
	C488.530823,617.902954 486.389923,617.780945 484.275513,621.560608 
	C492.283600,628.397949 501.690277,631.974792 511.809387,633.656921 
	C526.464050,636.093140 541.040039,636.344116 554.680420,629.216309 
	C563.562683,624.574890 569.173462,617.422974 568.682739,606.912292 
	C568.157837,595.669922 562.135437,587.724915 551.444946,585.075867 
	C542.549133,582.871521 533.091431,583.006836 523.919556,581.820251 
	C517.552734,580.996460 511.039825,580.345825 504.972473,578.419739 
	C498.290375,576.298584 494.624268,570.878052 493.920532,563.753052 
	C493.191895,556.375854 496.100555,550.561279 502.430634,547.021057 
	C506.553589,544.715210 511.291534,543.508972 516.594666,541.611633 
M941.130615,614.500000 
	C941.130615,624.267029 941.130615,634.034058 941.130615,643.699707 
	C943.496643,643.699707 945.229980,643.699707 947.273438,643.699707 
	C947.273438,614.273132 947.273438,585.170654 947.273438,555.337402 
	C952.019653,555.337402 956.461548,555.281860 960.901550,555.348450 
	C971.214294,555.503174 981.565430,555.231995 991.825684,556.063171 
	C999.724548,556.703064 1005.847717,563.910034 1006.066589,571.063843 
	C1006.319763,579.335388 1001.759338,585.759583 993.869324,587.587036 
	C990.841248,588.288391 987.606689,588.230713 984.462891,588.273010 
	C977.560669,588.365845 970.656372,588.301819 963.326233,588.301819 
	C963.431580,590.660278 963.507690,592.365723 963.590515,594.219604 
	C972.773254,594.219604 981.428894,594.543762 990.051025,594.143860 
	C1003.082520,593.539429 1011.928711,584.556091 1012.120483,572.370911 
	C1012.304993,560.647095 1003.121460,550.302612 990.692200,549.811218 
	C974.574036,549.174072 958.414307,549.584473 942.272461,549.570923 
	C941.997864,549.570679 941.723083,549.910767 941.130615,550.301819 
	C941.130615,571.229309 941.130615,592.364685 941.130615,614.500000 
M959.019897,575.518188 
	C959.019897,572.864136 959.019897,570.210144 959.019897,567.126282 
	C967.276855,567.126282 975.236023,567.083252 983.194214,567.151672 
	C985.678162,567.173035 988.320862,567.039673 990.585205,567.840881 
	C992.084595,568.371399 994.115784,570.565674 993.972412,571.788147 
	C993.783691,573.397400 991.939392,575.206787 990.344055,576.131653 
	C989.077148,576.866150 987.114990,576.454468 985.461182,576.459351 
	C978.230225,576.480774 970.999084,576.468567 963.329895,576.468567 
	C963.442200,578.804382 963.524780,580.521851 963.600342,582.092651 
	C973.363464,582.092651 982.597961,582.306458 991.815125,581.999695 
	C996.225830,581.852844 999.179260,579.111328 999.987305,574.584412 
	C1000.856628,569.714478 999.727356,565.397583 995.041809,563.154602 
	C992.443848,561.910889 989.328918,561.308777 986.424194,561.226868 
	C977.766846,560.982971 969.098206,561.139099 960.434021,561.138977 
	C958.016541,561.138916 955.599121,561.138977 953.296814,561.138977 
	C953.296814,589.167725 953.296814,616.436951 953.296814,643.721558 
	C955.295227,643.721558 957.021912,643.721558 959.019897,643.721558 
	C959.019897,621.122253 959.019897,598.818115 959.019897,575.518188 
M362.356476,527.500916 
	C362.356476,521.085510 362.356476,514.670166 362.356476,508.187317 
	C360.086548,508.187317 358.458862,508.187317 356.675659,508.187317 
	C356.675659,553.498657 356.675659,598.634460 356.675659,643.864746 
	C358.659698,643.864746 360.289703,643.864746 362.356201,643.864746 
	C362.356201,605.297119 362.356201,566.898865 362.356476,527.500916 
M350.675598,546.500061 
	C350.675598,533.761536 350.675598,521.023010 350.675598,508.234924 
	C348.200592,508.234924 346.589630,508.234924 344.884155,508.234924 
	C344.884155,553.542419 344.884155,598.627380 344.884155,643.713501 
	C346.865326,643.713501 348.601532,643.713501 350.675476,643.713501 
	C350.675476,611.428223 350.675476,579.464172 350.675598,546.500061 
M625.356445,536.557373 
	C625.356445,533.101807 625.356445,529.646179 625.356445,526.148376 
	C623.121399,526.148376 621.370361,526.148376 619.582764,526.148376 
	C619.582764,565.533203 619.582764,604.618103 619.582764,643.744873 
	C621.594421,643.744873 623.336853,643.744873 625.356140,643.744873 
	C625.356140,608.150452 625.356140,572.845947 625.356445,536.557373 
M607.733398,526.668091 
	C607.733398,565.698425 607.733398,604.728760 607.733398,644.092896 
	C609.974731,643.967468 611.695557,643.871155 613.398926,643.775818 
	C613.398926,604.278442 613.398926,565.263794 613.398926,526.068359 
	C611.496338,526.068359 609.868530,526.068359 607.733398,526.668091 
M374.114227,631.489624 
	C374.114227,590.411926 374.114227,549.334290 374.114227,507.990631 
	C371.887299,508.089325 370.286499,508.160248 368.419250,508.242981 
	C368.419250,553.576416 368.419250,598.611755 368.419250,643.713013 
	C370.399048,643.713013 372.121460,643.713013 374.114227,643.713013 
	C374.114227,639.769836 374.114227,636.126648 374.114227,631.489624 
M637.114258,611.500000 
	C637.114258,583.081970 637.114258,554.663940 637.114258,526.218384 
	C634.899231,526.218384 633.183899,526.218384 631.411072,526.218384 
	C631.411072,565.585999 631.411072,604.624268 631.411072,643.707153 
	C633.409851,643.707153 635.131897,643.707153 637.114258,643.707153 
	C637.114258,633.098755 637.114258,622.799377 637.114258,611.500000 
M702.138245,572.500000 
	C702.138245,596.246765 702.138245,619.993469 702.138245,643.671387 
	C704.479248,643.671387 706.201233,643.671387 707.839111,643.671387 
	C707.839111,604.274597 707.839111,565.224731 707.839111,525.863098 
	C705.828674,525.965515 704.111328,526.052979 702.138306,526.153503 
	C702.138306,541.579773 702.138306,556.539856 702.138245,572.500000 
M719.956787,578.500000 
	C719.956787,561.065247 719.956787,543.630554 719.956787,526.224121 
	C717.684814,526.224121 715.963257,526.224121 714.250793,526.224121 
	C714.250793,565.605652 714.250793,604.666626 714.250793,644.028503 
	C716.249329,643.939697 717.974976,643.863037 719.956787,643.774963 
	C719.956787,622.083374 719.956787,600.791687 719.956787,578.500000 
M725.885742,590.500000 
	C725.885742,608.255005 725.885742,626.009949 725.885742,644.069031 
	C728.196655,643.948547 729.916016,643.858887 731.555298,643.773438 
	C731.555298,604.244934 731.555298,565.203918 731.555298,525.853027 
	C729.509155,525.949646 727.785950,526.031006 726.178101,526.106934 
	C726.027100,526.940125 725.918579,527.260010 725.918335,527.580078 
	C725.901917,548.220032 725.894165,568.860046 725.885742,590.500000 
M143.024780,657.319824 
	C143.351791,658.428528 143.554886,659.593506 144.027771,660.636047 
	C145.835434,664.620972 149.046539,666.932190 153.350220,666.904236 
	C157.674606,666.876282 160.819397,664.640686 162.371719,660.369507 
	C163.867554,656.253662 162.720474,653.013672 159.720779,650.012695 
	C156.967529,647.258240 153.827698,646.241577 150.192429,647.382202 
	C145.804550,648.759033 143.385635,651.893066 143.024780,657.319824 
M196.120178,676.712830 
	C194.668991,683.678040 197.367233,688.081177 204.017395,689.599976 
	C209.325134,690.812195 214.318207,687.224121 215.408585,681.414124 
	C216.194992,677.223816 213.398621,672.505554 209.176895,670.899597 
	C203.762360,668.839783 200.045090,670.331604 196.120178,676.712830 
M134.000885,502.720154 
	C132.362396,496.066895 127.934990,492.861938 122.345566,494.282928 
	C116.509010,495.766785 113.254044,501.494019 114.977936,507.246582 
	C116.230103,511.425018 120.501198,514.344727 124.839264,513.987854 
	C130.295074,513.539001 133.335495,510.074677 134.000885,502.720154 
M212.985428,454.581940 
	C218.611008,458.437439 224.324081,458.013672 228.030609,453.466003 
	C230.942001,449.893921 230.611145,444.169861 227.298584,440.802368 
	C223.978241,437.426971 217.133575,436.873932 213.641541,439.972534 
	C209.905533,443.287567 207.935486,448.851318 212.985428,454.581940 
M257.440125,668.729919 
	C252.648666,672.783142 251.654312,677.721924 254.735855,682.161072 
	C257.568695,686.241882 264.270569,687.496582 268.556458,684.748352 
	C272.749817,682.059387 274.351318,676.364441 272.107117,672.122375 
	C269.423828,667.050232 263.912445,665.537720 257.440125,668.729919 
M97.133163,558.264832 
	C97.496864,559.365540 97.793053,560.494263 98.236099,561.562073 
	C100.046700,565.925964 103.535629,567.873779 108.043457,567.487793 
	C112.764153,567.083679 116.346039,563.508423 116.870850,558.836792 
	C117.379745,554.306763 115.589470,550.703613 111.351166,548.668762 
	C104.897041,545.570068 99.729225,548.797607 97.133163,558.264832 
M321.531586,482.339996 
	C320.891663,482.513855 320.254608,482.699158 319.611359,482.859833 
	C314.825653,484.055450 311.448883,488.633331 312.102020,493.047363 
	C312.945038,498.744843 317.482697,502.453491 323.168213,502.091919 
	C328.242828,501.769196 331.982361,497.709625 331.990967,492.513977 
	C331.999817,487.186310 328.690247,483.811554 321.531586,482.339996 
M126.006943,607.896667 
	C125.493439,607.254028 125.012955,606.581299 124.460915,605.973694 
	C121.409302,602.614563 117.642296,602.026245 113.648949,603.707642 
	C109.346802,605.519104 107.589691,609.019287 107.939484,613.674011 
	C108.275284,618.142517 110.594490,620.676880 114.790428,622.263184 
	C118.709763,623.744873 121.679497,622.301331 124.314850,620.035583 
	C127.924065,616.932495 127.641785,612.791199 126.006943,607.896667 
M174.291412,467.463867 
	C175.695724,461.554413 174.033173,457.649780 169.230392,455.577515 
	C164.578369,453.570374 159.426132,455.017761 156.934235,459.031830 
	C153.718994,464.211090 154.864960,469.959442 159.697769,472.894257 
	C164.484604,475.801086 170.779068,473.730530 174.291412,467.463867 
M268.002960,452.872986 
	C267.657532,454.457336 267.042053,456.037262 267.016205,457.626801 
	C266.931549,462.840973 271.015381,467.195709 276.064484,467.523926 
	C281.463745,467.874878 286.281067,464.042847 286.627380,458.712036 
	C286.920929,454.193268 284.664642,450.857605 280.657776,448.811493 
	C276.516144,446.696564 272.578461,447.828674 268.002960,452.872986 
M319.033295,654.604431 
	C322.529663,651.172668 323.170258,647.056946 321.152557,642.806458 
	C319.239197,638.775818 315.648804,637.325867 311.234467,637.942993 
	C306.755859,638.569031 303.481293,641.285156 303.162018,645.474304 
	C302.918671,648.667664 303.964447,652.973877 306.107697,655.102356 
	C309.530090,658.501221 314.304382,657.921753 319.033295,654.604431 
M149.593018,516.207275 
	C147.733780,519.371155 147.521667,522.766113 150.219147,525.231995 
	C151.799362,526.676514 154.572891,527.474426 156.782776,527.422485 
	C160.418732,527.336975 162.612991,524.476746 162.545334,521.150330 
	C162.499268,518.885437 161.159683,515.980164 159.419571,514.564392 
	C156.414932,512.119751 152.939499,512.850037 149.593018,516.207275 
M260.570251,481.000092 
	C257.601349,485.859863 257.797638,489.289764 261.407898,491.877258 
	C264.419098,494.035461 267.680634,494.131073 270.502960,491.660553 
	C273.530121,489.010681 274.047943,485.526245 271.659882,482.292847 
	C268.904175,478.561707 265.222900,477.902466 260.570251,481.000092 
M146.883865,562.145569 
	C146.861877,559.189209 147.694870,555.813660 146.522064,553.421509 
	C145.719070,551.783691 141.848480,550.423706 139.848236,550.926086 
	C137.616470,551.486694 134.673340,554.109497 134.372467,556.174622 
	C134.027328,558.543518 135.637741,561.900513 137.487946,563.721313 
	C140.264297,566.453491 143.617233,565.099792 146.883865,562.145569 
M169.214188,631.791748 
	C169.290298,635.908447 171.065491,639.302551 175.219208,639.661072 
	C177.603302,639.866882 180.829102,638.484436 182.521423,636.713623 
	C185.376648,633.725769 183.571777,628.400696 179.617172,626.200012 
	C175.823441,624.088989 172.000320,625.936218 169.214188,631.791748 
M293.593719,516.785400 
	C299.351410,520.662598 305.369354,519.187317 305.724609,513.436218 
	C305.877350,510.964355 304.336792,507.120880 302.412476,506.122162 
	C300.215332,504.981750 296.090118,505.361725 293.961426,506.798126 
	C290.768738,508.952484 291.147705,512.789795 293.593719,516.785400 
M259.578827,651.082458 
	C262.415009,648.505554 263.272430,645.055664 261.143860,642.180237 
	C259.732422,640.273499 256.435730,638.566895 254.199402,638.804871 
	C251.992767,639.039673 249.123260,641.469177 248.284500,643.615723 
	C247.539078,645.523376 248.476334,648.965576 249.925522,650.652954 
	C252.232773,653.339478 255.713638,653.623779 259.578827,651.082458 
M299.045410,627.159241 
	C299.006683,621.068970 296.555939,618.428711 291.351959,618.870789 
	C287.052643,619.236084 283.843445,622.921326 285.151428,627.104919 
	C285.856537,629.360229 288.234436,631.972534 290.424927,632.688904 
	C294.256226,633.941772 297.484283,632.045105 299.045410,627.159241 
M209.561935,654.283447 
	C215.404526,655.897827 218.940750,654.652771 220.041977,650.369324 
	C220.940933,646.872742 220.143280,643.787415 216.746353,641.943237 
	C212.932968,639.872742 209.551056,640.848083 207.208115,644.262756 
	C204.791748,647.784363 205.680450,651.126282 209.561935,654.283447 
M144.295502,595.036255 
	C142.178619,598.138245 141.878922,601.609863 144.666702,604.016907 
	C146.479004,605.581665 149.908813,606.783997 151.969849,606.127258 
	C154.057175,605.462280 156.465958,602.418335 156.682114,600.215088 
	C156.901123,597.982666 155.149414,594.870728 153.288818,593.283569 
	C150.598068,590.988098 147.390945,592.011475 144.295502,595.036255 
M229.190216,475.053101 
	C228.313248,470.829681 225.583511,468.601044 221.425613,469.135590 
	C217.982330,469.578308 215.306900,471.591248 214.972946,475.554047 
	C214.622849,479.708374 216.977249,482.612793 221.045135,483.125946 
	C225.020004,483.627411 229.449051,481.633911 229.190216,475.053101 
M191.070587,494.365509 
	C192.803497,489.079712 190.896835,484.858337 186.273315,484.060089 
	C182.609802,483.427643 179.750748,484.758759 178.275986,488.277954 
	C176.830292,491.727814 177.498154,494.987518 180.682556,496.951996 
	C184.330353,499.202271 187.910080,498.725647 191.070587,494.365509 
z"/>
<path fill="#361E85" opacity="1.000000" stroke="none" 
	d="
M401.004883,531.891968 
	C417.136688,531.891968 432.769226,531.891968 448.665375,531.891968 
	C448.665375,533.833618 448.665375,535.424988 448.665375,537.588379 
	C427.997681,537.588379 407.287262,537.588379 386.298737,537.588379 
	C386.298737,545.573486 386.298737,552.997375 386.298737,560.927429 
	C396.599457,560.927429 406.992004,560.927429 417.824707,560.927429 
	C417.940430,563.127319 418.031250,564.853149 418.144684,567.009460 
	C407.445892,567.009460 397.032288,567.009460 386.321716,567.009460 
	C386.321716,569.134155 386.321716,570.851685 386.321716,573.012085 
	C396.791626,573.012085 407.214172,573.012085 417.865448,573.012085 
	C417.865448,575.055237 417.865448,576.665649 417.865448,578.867798 
	C407.460175,578.867798 396.918396,578.867798 386.204773,578.867798 
	C386.204773,581.075073 386.204773,582.696167 386.204773,584.882690 
	C396.672607,584.882690 407.223999,584.882690 417.933685,584.882690 
	C417.933685,587.069824 417.933685,588.694702 417.933685,590.748169 
	C407.513977,590.748169 397.089264,590.748169 386.342316,590.748169 
	C386.342316,598.722656 386.342316,606.278503 386.342316,614.411255 
	C407.134186,614.411255 427.858948,614.411255 448.757294,614.411255 
	C448.757294,616.612366 448.757294,618.241211 448.757294,620.183105 
	C428.012146,620.183105 407.396851,620.183105 386.265747,620.183105 
	C386.173004,622.167969 386.093567,623.868469 385.992950,626.021606 
	C406.935150,626.021606 427.513885,626.021606 448.625092,626.021606 
	C448.724792,628.132202 448.805450,629.840210 448.911255,632.080017 
	C427.885193,632.080017 407.148041,632.080017 386.217865,632.080017 
	C386.217865,634.192932 386.217865,635.805786 386.217865,637.946228 
	C406.916260,637.946228 427.648895,637.946228 448.646423,637.946228 
	C448.646423,640.180969 448.646423,641.897766 448.646423,643.818054 
	C425.857330,643.818054 403.255676,643.818054 380.344116,643.818054 
	C380.344116,598.693481 380.344116,553.652039 380.344116,508.322357 
	C403.037598,508.322357 425.617371,508.322357 448.640533,508.322357 
	C448.727875,510.016205 448.816803,511.740814 448.929993,513.935913 
	C427.923370,513.935913 407.201080,513.935913 386.250031,513.935913 
	C386.250031,516.114563 386.250031,517.840271 386.250031,519.887207 
	C407.029175,519.887207 427.636932,519.887207 448.589630,519.887207 
	C448.589630,521.912476 448.589630,523.625854 448.589630,525.879150 
	C427.860870,525.879150 407.130676,525.879150 386.212677,525.879150 
	C386.212677,528.017090 386.212677,529.633118 386.212677,531.891968 
	C390.956665,531.891968 395.731140,531.891968 401.004883,531.891968 
z"/>
<path fill="#3A2287" opacity="1.000000" stroke="none" 
	d="
M794.512512,642.409790 
	C766.505432,627.488953 753.160583,595.567993 762.282227,565.879395 
	C771.306763,536.506897 801.131653,516.442932 830.997192,520.325195 
	C859.062561,523.973511 878.436035,539.476807 886.557434,566.525757 
	C894.579773,593.244995 887.246704,617.005737 865.769592,634.748596 
	C844.338867,652.453186 820.128601,654.891052 794.512512,642.409790 
M868.116882,624.607544 
	C884.527039,606.602234 888.027283,581.079651 877.159607,558.670776 
	C862.584717,528.618103 825.530579,517.061523 795.857727,533.314270 
	C766.973572,549.135071 756.759766,586.706787 773.679504,614.897705 
	C794.197571,649.084045 838.887390,653.969421 868.116882,624.607544 
z"/>
<path fill="#3B2388" opacity="1.000000" stroke="none" 
	d="
M964.572998,617.879944 
	C963.795776,616.115540 963.458313,614.429932 962.966370,611.973083 
	C972.057007,611.973083 980.491211,612.162598 988.913940,611.932251 
	C1004.782349,611.498230 1017.148499,604.577759 1024.906860,590.659790 
	C1038.446045,566.371338 1022.118225,534.433777 994.063232,532.478760 
	C970.888855,530.863831 947.512390,532.148804 923.743103,532.148804 
	C923.743103,569.358704 923.743103,606.426636 923.743103,643.758057 
	C921.509827,643.758057 919.757385,643.758057 917.843018,643.758057 
	C917.843018,604.542419 917.843018,565.439453 917.843018,525.865967 
	C921.967285,525.865967 925.926697,525.860229 929.886108,525.866882 
	C950.213196,525.901184 970.542969,525.746399 990.866577,526.032349 
	C1009.167175,526.289795 1026.396240,539.089661 1033.089355,556.814148 
	C1039.433228,573.613708 1034.650269,593.839783 1021.091370,606.172058 
	C1012.770203,613.740417 1002.611511,617.319458 991.499390,617.800659 
	C982.684753,618.182373 973.842651,617.929749 964.572998,617.879944 
z"/>
<path fill="#382086" opacity="1.000000" stroke="none" 
	d="
M696.323120,551.000244 
	C696.322998,582.146423 696.322998,612.792603 696.322998,643.727417 
	C694.324097,643.727417 692.584229,643.727417 690.387756,643.727417 
	C690.387756,628.243713 690.387756,612.818298 690.387756,597.129639 
	C676.508545,597.129639 663.079163,597.129639 649.231140,597.129639 
	C649.231140,612.496155 649.231140,627.914734 649.231140,643.774475 
	C647.111511,643.876038 645.382080,643.958862 643.334717,644.057007 
	C643.334717,604.706360 643.334717,565.616516 643.334717,526.200317 
	C644.927002,526.200317 646.666260,526.200317 648.942017,526.200317 
	C648.942017,539.641602 648.942017,553.177612 648.942017,566.922852 
	C662.888489,566.922852 676.304993,566.922852 690.137756,566.922852 
	C690.137756,553.366089 690.137756,539.952026 690.137756,526.206177 
	C692.300476,526.206177 694.051880,526.206177 696.323181,526.206177 
	C696.323181,534.271484 696.323181,542.385864 696.323120,551.000244 
M666.501465,573.096863 
	C660.749268,573.096863 654.997070,573.096863 648.959656,573.096863 
	C649.067810,575.414124 649.147644,577.126160 649.217529,578.623779 
	C663.214050,578.623779 676.703247,578.623779 690.426758,578.623779 
	C690.310791,576.649109 690.217407,575.058655 690.102173,573.096863 
	C682.369141,573.096863 674.934937,573.096863 666.501465,573.096863 
M680.462280,590.903137 
	C683.571777,590.903137 686.681213,590.903137 690.076477,590.903137 
	C690.076477,588.714966 690.076477,587.016113 690.076477,585.229858 
	C676.294067,585.229858 662.780334,585.229858 648.976257,585.229858 
	C649.075073,587.237000 649.159485,588.953003 649.255493,590.903137 
	C659.619934,590.903137 669.547241,590.903137 680.462280,590.903137 
z"/>
<path fill="#3D2589" opacity="1.000000" stroke="none" 
	d="
M1012.630493,588.454590 
	C1025.183716,568.561707 1013.236816,544.839233 990.179932,543.983948 
	C972.707581,543.335754 955.195923,543.743530 937.701660,543.704712 
	C937.072021,543.703308 936.441895,543.950500 935.440063,544.159363 
	C935.440063,577.355042 935.440063,610.456970 935.440063,643.792480 
	C933.283752,643.792480 931.534973,643.792480 929.561157,643.792480 
	C929.561157,608.480957 929.561157,573.375610 929.561157,538.120056 
	C930.285583,537.954468 930.913269,537.684753 931.540466,537.685974 
	C951.201660,537.725891 970.869507,537.493591 990.521851,537.941528 
	C1008.826965,538.358704 1024.033813,554.045776 1023.981812,571.647644 
	C1023.926880,590.288391 1009.085876,605.471558 990.153870,605.993835 
	C981.358215,606.236511 972.550293,606.035339 963.546875,606.035339 
	C963.546875,604.078918 963.546875,602.462891 963.546875,600.054688 
	C971.631348,600.054688 979.549683,599.916077 987.461182,600.089355 
	C997.653381,600.312500 1005.922180,596.557373 1012.630493,588.454590 
z"/>
<path fill="#392287" opacity="1.000000" stroke="none" 
	d="
M507.212708,620.697021 
	C502.443542,618.701477 498.048218,616.862366 493.226196,614.844604 
	C495.574127,611.191528 497.309570,610.134827 501.112183,611.999390 
	C514.533447,618.580200 528.739136,618.430786 543.000488,615.431580 
	C546.924988,614.606262 550.829834,612.864136 550.859863,607.784851 
	C550.883789,603.741516 547.772644,600.839111 541.846924,600.302673 
	C535.080627,599.690186 528.153381,600.467529 521.463867,599.491333 
	C512.678650,598.209351 503.504822,597.074951 495.492676,593.590271 
	C482.933228,588.127808 476.542877,577.308594 476.043152,563.447510 
	C475.541718,549.539429 481.650024,538.938171 493.326447,531.830688 
	C509.716309,521.854065 527.716370,521.397034 546.006287,524.305542 
	C556.613708,525.992432 566.563965,529.685547 575.459106,535.860840 
	C577.591309,537.341064 579.546448,539.076294 581.898682,540.945007 
	C580.151489,542.299805 578.878113,543.287231 577.299011,544.511719 
	C566.783386,535.750488 554.476746,531.051331 541.067017,529.601013 
	C525.168945,527.881714 509.451508,528.173584 495.454010,537.635620 
	C485.472931,544.382568 480.743561,553.707336 482.213654,565.777893 
	C483.656525,577.624878 490.364838,585.881897 501.359070,589.752075 
	C507.972382,592.080078 515.243103,592.769348 522.289246,593.576355 
	C529.694885,594.424561 537.200562,594.369934 544.628784,595.068420 
	C546.832092,595.275574 549.080078,596.430664 551.035034,597.605042 
	C558.532288,602.108704 559.386719,612.544617 551.947083,617.072021 
	C546.902954,620.141724 540.626343,622.385803 534.787170,622.671143 
	C525.771423,623.111755 516.658386,621.560120 507.212708,620.697021 
z"/>
<path fill="#3A2287" opacity="1.000000" stroke="none" 
	d="
M536.460815,576.097290 
	C528.363403,575.737549 520.698303,575.691101 513.105957,574.924377 
	C510.125885,574.623474 506.960175,573.199219 504.484772,571.436035 
	C497.926666,566.764893 497.572021,557.062073 504.372284,552.840271 
	C509.240082,549.818176 515.235474,548.040527 520.957458,547.089844 
	C531.577637,545.325256 542.200806,546.557678 552.407471,550.091675 
	C556.092712,551.367615 559.515259,553.402283 563.251404,555.183044 
	C560.745117,558.845154 558.761658,559.231567 555.054626,557.495422 
	C541.601196,551.194641 527.380676,551.095703 513.158386,554.344299 
	C509.414276,555.199524 505.387939,557.012634 505.811890,562.337097 
	C506.225220,567.527893 510.001831,568.855896 514.143677,569.214294 
	C520.092590,569.729065 526.105530,569.527954 532.047791,570.090210 
	C539.298157,570.776245 546.724243,571.136169 553.683655,573.054688 
	C569.263306,577.349609 578.818970,588.810120 580.152344,603.280762 
	C581.625854,619.272705 574.705994,631.972046 560.276672,639.756714 
	C536.943298,652.345154 496.654999,647.921875 476.751892,630.573914 
	C476.133087,630.034546 475.617126,629.377319 474.813385,628.518799 
	C476.379852,627.367432 477.806671,626.318787 479.027435,625.421509 
	C501.808258,641.603516 526.424255,645.400391 552.496643,636.536072 
	C571.319519,630.136353 579.273560,612.469971 571.985657,595.537048 
	C567.083191,584.146545 557.185974,579.467102 545.840332,577.108215 
	C542.925293,576.502136 539.897949,576.436340 536.460815,576.097290 
z"/>
<path fill="#392187" opacity="1.000000" stroke="none" 
	d="
M516.174316,541.710938 
	C511.291534,543.508972 506.553589,544.715210 502.430634,547.021057 
	C496.100555,550.561279 493.191895,556.375854 493.920532,563.753052 
	C494.624268,570.878052 498.290375,576.298584 504.972473,578.419739 
	C511.039825,580.345825 517.552734,580.996460 523.919556,581.820251 
	C533.091431,583.006836 542.549133,582.871521 551.444946,585.075867 
	C562.135437,587.724915 568.157837,595.669922 568.682739,606.912292 
	C569.173462,617.422974 563.562683,624.574890 554.680420,629.216309 
	C541.040039,636.344116 526.464050,636.093140 511.809387,633.656921 
	C501.690277,631.974792 492.283600,628.397949 484.275513,621.560608 
	C486.389923,617.780945 488.530823,617.902954 492.177521,620.035400 
	C509.641235,630.247192 528.389404,631.786438 547.501709,626.018616 
	C559.558472,622.379944 564.731628,613.256714 562.036926,602.974243 
	C560.209961,596.002930 555.388611,591.581299 548.723206,590.174438 
	C541.806335,588.714478 534.575684,588.811279 527.524780,587.898926 
	C519.348083,586.841003 510.944672,586.318726 503.138428,583.932373 
	C494.027893,581.147339 488.832397,574.043457 487.946655,564.242432 
	C487.038208,554.190308 491.398834,546.755859 499.762665,541.738098 
	C514.555420,532.863281 530.622742,533.509277 546.731995,536.524780 
	C558.229065,538.676880 566.560486,542.945496 572.294067,548.562073 
	C570.943848,549.721497 569.613831,550.863647 568.259399,552.026672 
	C552.404114,540.934570 534.889709,539.297852 516.174316,541.710938 
z"/>
<path fill="#3B2388" opacity="1.000000" stroke="none" 
	d="
M941.130615,614.000000 
	C941.130615,592.364685 941.130615,571.229309 941.130615,550.301819 
	C941.723083,549.910767 941.997864,549.570679 942.272461,549.570923 
	C958.414307,549.584473 974.574036,549.174072 990.692200,549.811218 
	C1003.121460,550.302612 1012.304993,560.647095 1012.120483,572.370911 
	C1011.928711,584.556091 1003.082520,593.539429 990.051025,594.143860 
	C981.428894,594.543762 972.773254,594.219604 963.590515,594.219604 
	C963.507690,592.365723 963.431580,590.660278 963.326233,588.301819 
	C970.656372,588.301819 977.560669,588.365845 984.462891,588.273010 
	C987.606689,588.230713 990.841248,588.288391 993.869324,587.587036 
	C1001.759338,585.759583 1006.319763,579.335388 1006.066589,571.063843 
	C1005.847717,563.910034 999.724548,556.703064 991.825684,556.063171 
	C981.565430,555.231995 971.214294,555.503174 960.901550,555.348450 
	C956.461548,555.281860 952.019653,555.337402 947.273438,555.337402 
	C947.273438,585.170654 947.273438,614.273132 947.273438,643.699707 
	C945.229980,643.699707 943.496643,643.699707 941.130615,643.699707 
	C941.130615,634.034058 941.130615,624.267029 941.130615,614.000000 
z"/>
<path fill="#382086" opacity="1.000000" stroke="none" 
	d="
M959.019897,576.016113 
	C959.019897,598.818115 959.019897,621.122253 959.019897,643.721558 
	C957.021912,643.721558 955.295227,643.721558 953.296814,643.721558 
	C953.296814,616.436951 953.296814,589.167725 953.296814,561.138977 
	C955.599121,561.138977 958.016541,561.138916 960.434021,561.138977 
	C969.098206,561.139099 977.766846,560.982971 986.424194,561.226868 
	C989.328918,561.308777 992.443848,561.910889 995.041809,563.154602 
	C999.727356,565.397583 1000.856628,569.714478 999.987305,574.584412 
	C999.179260,579.111328 996.225830,581.852844 991.815125,581.999695 
	C982.597961,582.306458 973.363464,582.092651 963.600342,582.092651 
	C963.524780,580.521851 963.442200,578.804382 963.329895,576.468567 
	C970.999084,576.468567 978.230225,576.480774 985.461182,576.459351 
	C987.114990,576.454468 989.077148,576.866150 990.344055,576.131653 
	C991.939392,575.206787 993.783691,573.397400 993.972412,571.788147 
	C994.115784,570.565674 992.084595,568.371399 990.585205,567.840881 
	C988.320862,567.039673 985.678162,567.173035 983.194214,567.151672 
	C975.236023,567.083252 967.276855,567.126282 959.019897,567.126282 
	C959.019897,570.210144 959.019897,572.864136 959.019897,576.016113 
z"/>
<path fill="#40288A" opacity="1.000000" stroke="none" 
	d="
M362.356323,528.000732 
	C362.356201,566.898865 362.356201,605.297119 362.356201,643.864746 
	C360.289703,643.864746 358.659698,643.864746 356.675659,643.864746 
	C356.675659,598.634460 356.675659,553.498657 356.675659,508.187317 
	C358.458862,508.187317 360.086548,508.187317 362.356476,508.187317 
	C362.356476,514.670166 362.356476,521.085510 362.356323,528.000732 
z"/>
<path fill="#40288A" opacity="1.000000" stroke="none" 
	d="
M350.675537,547.000122 
	C350.675476,579.464172 350.675476,611.428223 350.675476,643.713501 
	C348.601532,643.713501 346.865326,643.713501 344.884155,643.713501 
	C344.884155,598.627380 344.884155,553.542419 344.884155,508.234924 
	C346.589630,508.234924 348.200592,508.234924 350.675598,508.234924 
	C350.675598,521.023010 350.675598,533.761536 350.675537,547.000122 
z"/>
<path fill="#40288A" opacity="1.000000" stroke="none" 
	d="
M625.356323,537.049377 
	C625.356140,572.845947 625.356140,608.150452 625.356140,643.744873 
	C623.336853,643.744873 621.594421,643.744873 619.582764,643.744873 
	C619.582764,604.618103 619.582764,565.533203 619.582764,526.148376 
	C621.370361,526.148376 623.121399,526.148376 625.356445,526.148376 
	C625.356445,529.646179 625.356445,533.101807 625.356323,537.049377 
z"/>
<path fill="#40288A" opacity="1.000000" stroke="none" 
	d="
M607.987061,526.368225 
	C609.868530,526.068359 611.496338,526.068359 613.398926,526.068359 
	C613.398926,565.263794 613.398926,604.278442 613.398926,643.775818 
	C611.695557,643.871155 609.974731,643.967468 607.733398,644.092896 
	C607.733398,604.728760 607.733398,565.698425 607.987061,526.368225 
z"/>
<path fill="#392186" opacity="1.000000" stroke="none" 
	d="
M374.114227,631.986572 
	C374.114227,636.126648 374.114227,639.769836 374.114227,643.713013 
	C372.121460,643.713013 370.399048,643.713013 368.419250,643.713013 
	C368.419250,598.611755 368.419250,553.576416 368.419250,508.242981 
	C370.286499,508.160248 371.887299,508.089325 374.114227,507.990631 
	C374.114227,549.334290 374.114227,590.411926 374.114227,631.986572 
z"/>
<path fill="#392186" opacity="1.000000" stroke="none" 
	d="
M637.114258,612.000000 
	C637.114258,622.799377 637.114258,633.098755 637.114258,643.707153 
	C635.131897,643.707153 633.409851,643.707153 631.411072,643.707153 
	C631.411072,604.624268 631.411072,565.585999 631.411072,526.218384 
	C633.183899,526.218384 634.899231,526.218384 637.114258,526.218384 
	C637.114258,554.663940 637.114258,583.081970 637.114258,612.000000 
z"/>
<path fill="#392186" opacity="1.000000" stroke="none" 
	d="
M702.138306,572.000000 
	C702.138306,556.539856 702.138306,541.579773 702.138306,526.153503 
	C704.111328,526.052979 705.828674,525.965515 707.839111,525.863098 
	C707.839111,565.224731 707.839111,604.274597 707.839111,643.671387 
	C706.201233,643.671387 704.479248,643.671387 702.138245,643.671387 
	C702.138245,619.993469 702.138245,596.246765 702.138306,572.000000 
z"/>
<path fill="#331B83" opacity="1.000000" stroke="none" 
	d="
M719.956787,579.000000 
	C719.956787,600.791687 719.956787,622.083374 719.956787,643.774963 
	C717.974976,643.863037 716.249329,643.939697 714.250793,644.028503 
	C714.250793,604.666626 714.250793,565.605652 714.250793,526.224121 
	C715.963257,526.224121 717.684814,526.224121 719.956787,526.224121 
	C719.956787,543.630554 719.956787,561.065247 719.956787,579.000000 
z"/>
<path fill="#392186" opacity="1.000000" stroke="none" 
	d="
M725.885742,590.000000 
	C725.894165,568.860046 725.901917,548.220032 725.918335,527.580078 
	C725.918579,527.260010 726.027100,526.940125 726.178101,526.106934 
	C727.785950,526.031006 729.509155,525.949646 731.555298,525.853027 
	C731.555298,565.203918 731.555298,604.244934 731.555298,643.773438 
	C729.916016,643.858887 728.196655,643.948547 725.885742,644.069031 
	C725.885742,626.009949 725.885742,608.255005 725.885742,590.000000 
z"/>
<path fill="#78E3F5" opacity="1.000000" stroke="none" 
	d="
M143.016586,656.923157 
	C143.385635,651.893066 145.804550,648.759033 150.192429,647.382202 
	C153.827698,646.241577 156.967529,647.258240 159.720779,650.012695 
	C162.720474,653.013672 163.867554,656.253662 162.371719,660.369507 
	C160.819397,664.640686 157.674606,666.876282 153.350220,666.904236 
	C149.046539,666.932190 145.835434,664.620972 144.027771,660.636047 
	C143.554886,659.593506 143.351791,658.428528 143.016586,656.923157 
z"/>
<path fill="#78E3F5" opacity="1.000000" stroke="none" 
	d="
M196.263611,676.368652 
	C200.045090,670.331604 203.762360,668.839783 209.176895,670.899597 
	C213.398621,672.505554 216.194992,677.223816 215.408585,681.414124 
	C214.318207,687.224121 209.325134,690.812195 204.017395,689.599976 
	C197.367233,688.081177 194.668991,683.678040 196.263611,676.368652 
z"/>
<path fill="#78E3F5" opacity="1.000000" stroke="none" 
	d="
M134.008301,503.126068 
	C133.335495,510.074677 130.295074,513.539001 124.839264,513.987854 
	C120.501198,514.344727 116.230103,511.425018 114.977936,507.246582 
	C113.254044,501.494019 116.509010,495.766785 122.345566,494.282928 
	C127.934990,492.861938 132.362396,496.066895 134.008301,503.126068 
z"/>
<path fill="#78E3F5" opacity="1.000000" stroke="none" 
	d="
M212.705811,454.302673 
	C207.935486,448.851318 209.905533,443.287567 213.641541,439.972534 
	C217.133575,436.873932 223.978241,437.426971 227.298584,440.802368 
	C230.611145,444.169861 230.942001,449.893921 228.030609,453.466003 
	C224.324081,458.013672 218.611008,458.437439 212.705811,454.302673 
z"/>
<path fill="#78E3F5" opacity="1.000000" stroke="none" 
	d="
M257.763367,668.502319 
	C263.912445,665.537720 269.423828,667.050232 272.107117,672.122375 
	C274.351318,676.364441 272.749817,682.059387 268.556458,684.748352 
	C264.270569,687.496582 257.568695,686.241882 254.735855,682.161072 
	C251.654312,677.721924 252.648666,672.783142 257.763367,668.502319 
z"/>
<path fill="#78E3F5" opacity="1.000000" stroke="none" 
	d="
M97.098679,557.880859 
	C99.729225,548.797607 104.897041,545.570068 111.351166,548.668762 
	C115.589470,550.703613 117.379745,554.306763 116.870850,558.836792 
	C116.346039,563.508423 112.764153,567.083679 108.043457,567.487793 
	C103.535629,567.873779 100.046700,565.925964 98.236099,561.562073 
	C97.793053,560.494263 97.496864,559.365540 97.098679,557.880859 
z"/>
<path fill="#78E3F5" opacity="1.000000" stroke="none" 
	d="
M321.886353,482.456055 
	C328.690247,483.811554 331.999817,487.186310 331.990967,492.513977 
	C331.982361,497.709625 328.242828,501.769196 323.168213,502.091919 
	C317.482697,502.453491 312.945038,498.744843 312.102020,493.047363 
	C311.448883,488.633331 314.825653,484.055450 319.611359,482.859833 
	C320.254608,482.699158 320.891663,482.513855 321.886353,482.456055 
z"/>
<path fill="#78E3F5" opacity="1.000000" stroke="none" 
	d="
M126.173019,608.264648 
	C127.641785,612.791199 127.924065,616.932495 124.314850,620.035583 
	C121.679497,622.301331 118.709763,623.744873 114.790428,622.263184 
	C110.594490,620.676880 108.275284,618.142517 107.939484,613.674011 
	C107.589691,609.019287 109.346802,605.519104 113.648949,603.707642 
	C117.642296,602.026245 121.409302,602.614563 124.460915,605.973694 
	C125.012955,606.581299 125.493439,607.254028 126.173019,608.264648 
z"/>
<path fill="#78E3F5" opacity="1.000000" stroke="none" 
	d="
M174.141586,467.828003 
	C170.779068,473.730530 164.484604,475.801086 159.697769,472.894257 
	C154.864960,469.959442 153.718994,464.211090 156.934235,459.031830 
	C159.426132,455.017761 164.578369,453.570374 169.230392,455.577515 
	C174.033173,457.649780 175.695724,461.554413 174.141586,467.828003 
z"/>
<path fill="#78E3F5" opacity="1.000000" stroke="none" 
	d="
M268.200745,452.530731 
	C272.578461,447.828674 276.516144,446.696564 280.657776,448.811493 
	C284.664642,450.857605 286.920929,454.193268 286.627380,458.712036 
	C286.281067,464.042847 281.463745,467.874878 276.064484,467.523926 
	C271.015381,467.195709 266.931549,462.840973 267.016205,457.626801 
	C267.042053,456.037262 267.657532,454.457336 268.200745,452.530731 
z"/>
<path fill="#78E3F5" opacity="1.000000" stroke="none" 
	d="
M318.743408,654.874512 
	C314.304382,657.921753 309.530090,658.501221 306.107697,655.102356 
	C303.964447,652.973877 302.918671,648.667664 303.162018,645.474304 
	C303.481293,641.285156 306.755859,638.569031 311.234467,637.942993 
	C315.648804,637.325867 319.239197,638.775818 321.152557,642.806458 
	C323.170258,647.056946 322.529663,651.172668 318.743408,654.874512 
z"/>
<path fill="#8783ED" opacity="1.000000" stroke="none" 
	d="
M149.847183,515.922852 
	C152.939499,512.850037 156.414932,512.119751 159.419571,514.564392 
	C161.159683,515.980164 162.499268,518.885437 162.545334,521.150330 
	C162.612991,524.476746 160.418732,527.336975 156.782776,527.422485 
	C154.572891,527.474426 151.799362,526.676514 150.219147,525.231995 
	C147.521667,522.766113 147.733780,519.371155 149.847183,515.922852 
z"/>
<path fill="#8481EE" opacity="1.000000" stroke="none" 
	d="
M260.883606,480.776398 
	C265.222900,477.902466 268.904175,478.561707 271.659882,482.292847 
	C274.047943,485.526245 273.530121,489.010681 270.502960,491.660553 
	C267.680634,494.131073 264.419098,494.035461 261.407898,491.877258 
	C257.797638,489.289764 257.601349,485.859863 260.883606,480.776398 
z"/>
<path fill="#8481EE" opacity="1.000000" stroke="none" 
	d="
M146.643814,562.466064 
	C143.617233,565.099792 140.264297,566.453491 137.487946,563.721313 
	C135.637741,561.900513 134.027328,558.543518 134.372467,556.174622 
	C134.673340,554.109497 137.616470,551.486694 139.848236,550.926086 
	C141.848480,550.423706 145.719070,551.783691 146.522064,553.421509 
	C147.694870,555.813660 146.861877,559.189209 146.643814,562.466064 
z"/>
<path fill="#8481EE" opacity="1.000000" stroke="none" 
	d="
M169.354919,631.441101 
	C172.000320,625.936218 175.823441,624.088989 179.617172,626.200012 
	C183.571777,628.400696 185.376648,633.725769 182.521423,636.713623 
	C180.829102,638.484436 177.603302,639.866882 175.219208,639.661072 
	C171.065491,639.302551 169.290298,635.908447 169.354919,631.441101 
z"/>
<path fill="#8481EE" opacity="1.000000" stroke="none" 
	d="
M293.352905,516.461792 
	C291.147705,512.789795 290.768738,508.952484 293.961426,506.798126 
	C296.090118,505.361725 300.215332,504.981750 302.412476,506.122162 
	C304.336792,507.120880 305.877350,510.964355 305.724609,513.436218 
	C305.369354,519.187317 299.351410,520.662598 293.352905,516.461792 
z"/>
<path fill="#8481EE" opacity="1.000000" stroke="none" 
	d="
M259.283508,651.338379 
	C255.713638,653.623779 252.232773,653.339478 249.925522,650.652954 
	C248.476334,648.965576 247.539078,645.523376 248.284500,643.615723 
	C249.123260,641.469177 251.992767,639.039673 254.199402,638.804871 
	C256.435730,638.566895 259.732422,640.273499 261.143860,642.180237 
	C263.272430,645.055664 262.415009,648.505554 259.283508,651.338379 
z"/>
<path fill="#8481EE" opacity="1.000000" stroke="none" 
	d="
M299.000000,627.563049 
	C297.484283,632.045105 294.256226,633.941772 290.424927,632.688904 
	C288.234436,631.972534 285.856537,629.360229 285.151428,627.104919 
	C283.843445,622.921326 287.052643,619.236084 291.351959,618.870789 
	C296.555939,618.428711 299.006683,621.068970 299.000000,627.563049 
z"/>
<path fill="#8481EE" opacity="1.000000" stroke="none" 
	d="
M209.210175,654.084839 
	C205.680450,651.126282 204.791748,647.784363 207.208115,644.262756 
	C209.551056,640.848083 212.932968,639.872742 216.746353,641.943237 
	C220.143280,643.787415 220.940933,646.872742 220.041977,650.369324 
	C218.940750,654.652771 215.404526,655.897827 209.210175,654.084839 
z"/>
<path fill="#8481EE" opacity="1.000000" stroke="none" 
	d="
M144.573364,594.755310 
	C147.390945,592.011475 150.598068,590.988098 153.288818,593.283569 
	C155.149414,594.870728 156.901123,597.982666 156.682114,600.215088 
	C156.465958,602.418335 154.057175,605.462280 151.969849,606.127258 
	C149.908813,606.783997 146.479004,605.581665 144.666702,604.016907 
	C141.878922,601.609863 142.178619,598.138245 144.573364,594.755310 
z"/>
<path fill="#8481EE" opacity="1.000000" stroke="none" 
	d="
M229.268311,475.405975 
	C229.449051,481.633911 225.020004,483.627411 221.045135,483.125946 
	C216.977249,482.612793 214.622849,479.708374 214.972946,475.554047 
	C215.306900,471.591248 217.982330,469.578308 221.425613,469.135590 
	C225.583511,468.601044 228.313248,470.829681 229.268311,475.405975 
z"/>
<path fill="#8481EE" opacity="1.000000" stroke="none" 
	d="
M190.854767,494.697235 
	C187.910080,498.725647 184.330353,499.202271 180.682556,496.951996 
	C177.498154,494.987518 176.830292,491.727814 178.275986,488.277954 
	C179.750748,484.758759 182.609802,483.427643 186.273315,484.060089 
	C190.896835,484.858337 192.803497,489.079712 190.854767,494.697235 
z"/>
<path fill="#F9F8FC" opacity="1.000000" stroke="none" 
	d="
M867.904175,624.891174 
	C838.887390,653.969421 794.197571,649.084045 773.679504,614.897705 
	C756.759766,586.706787 766.973572,549.135071 795.857727,533.314270 
	C825.530579,517.061523 862.584717,528.618103 877.159607,558.670776 
	C888.027283,581.079651 884.527039,606.602234 867.904175,624.891174 
M784.455688,549.981995 
	C770.139221,567.858887 766.767639,587.454529 776.919739,608.190613 
	C786.561218,627.883606 803.120728,637.842041 825.054688,637.972473 
	C849.064026,638.115295 870.403687,621.062927 876.043518,597.863159 
	C881.829834,574.060974 870.906006,549.376099 849.614746,538.141113 
	C827.693604,526.573730 801.224976,531.214905 784.455688,549.981995 
z"/>
<path fill="#F9F9FC" opacity="1.000000" stroke="none" 
	d="
M667.001099,573.096863 
	C674.934937,573.096863 682.369141,573.096863 690.102173,573.096863 
	C690.217407,575.058655 690.310791,576.649109 690.426758,578.623779 
	C676.703247,578.623779 663.214050,578.623779 649.217529,578.623779 
	C649.147644,577.126160 649.067810,575.414124 648.959656,573.096863 
	C654.997070,573.096863 660.749268,573.096863 667.001099,573.096863 
z"/>
<path fill="#F9F9FC" opacity="1.000000" stroke="none" 
	d="
M679.968384,590.903137 
	C669.547241,590.903137 659.619934,590.903137 649.255493,590.903137 
	C649.159485,588.953003 649.075073,587.237000 648.976257,585.229858 
	C662.780334,585.229858 676.294067,585.229858 690.076477,585.229858 
	C690.076477,587.016113 690.076477,588.714966 690.076477,590.903137 
	C686.681213,590.903137 683.571777,590.903137 679.968384,590.903137 
z"/>
<path fill="#392187" opacity="1.000000" stroke="none" 
	d="
M784.708740,549.729858 
	C801.224976,531.214905 827.693604,526.573730 849.614746,538.141113 
	C870.906006,549.376099 881.829834,574.060974 876.043518,597.863159 
	C870.403687,621.062927 849.064026,638.115295 825.054688,637.972473 
	C803.120728,637.842041 786.561218,627.883606 776.919739,608.190613 
	C766.767639,587.454529 770.139221,567.858887 784.708740,549.729858 
M821.670105,537.928711 
	C800.777527,539.120056 783.880493,553.267822 778.545715,574.036316 
	C773.604553,593.272400 782.515747,614.629333 799.910767,625.241028 
	C817.468567,635.951782 840.139648,633.977173 855.564392,620.393616 
	C870.044128,607.642395 875.569214,586.849426 869.067505,569.576233 
	C861.334717,549.032166 844.959106,537.849854 821.670105,537.928711 
z"/>
<path fill="#F7F7FB" opacity="1.000000" stroke="none" 
	d="
M822.140381,537.890564 
	C844.959106,537.849854 861.334717,549.032166 869.067505,569.576233 
	C875.569214,586.849426 870.044128,607.642395 855.564392,620.393616 
	C840.139648,633.977173 817.468567,635.951782 799.910767,625.241028 
	C782.515747,614.629333 773.604553,593.272400 778.545715,574.036316 
	C783.880493,553.267822 800.777527,539.120056 822.140381,537.890564 
M803.216003,620.347473 
	C809.718811,624.470947 816.868896,626.332764 824.516418,626.228149 
	C841.625244,625.994080 854.260315,617.917664 861.651123,602.863342 
	C869.098083,587.694641 867.378967,572.612549 856.791443,559.316650 
	C846.218445,546.038940 832.028564,541.077332 815.477295,544.783875 
	C798.475037,548.591370 787.650574,559.519836 784.142517,576.526550 
	C780.350464,594.910156 787.239685,609.396423 803.216003,620.347473 
z"/>
<path fill="#392187" opacity="1.000000" stroke="none" 
	d="
M802.897583,620.165894 
	C787.239685,609.396423 780.350464,594.910156 784.142517,576.526550 
	C787.650574,559.519836 798.475037,548.591370 815.477295,544.783875 
	C832.028564,541.077332 846.218445,546.038940 856.791443,559.316650 
	C867.378967,572.612549 869.098083,587.694641 861.651123,602.863342 
	C854.260315,617.917664 841.625244,625.994080 824.516418,626.228149 
	C816.868896,626.332764 809.718811,624.470947 802.897583,620.165894 
M842.814941,554.574890 
	C828.511658,546.948486 812.757385,548.167603 801.818787,557.747375 
	C790.144409,567.971497 785.965759,583.337341 791.129944,597.051575 
	C796.671509,611.768005 810.243225,620.748718 826.065796,620.169250 
	C841.096069,619.618835 854.558777,609.191895 858.544189,595.014587 
	C862.916321,579.461975 857.220337,564.402954 842.814941,554.574890 
z"/>
<path fill="#F8F8FB" opacity="1.000000" stroke="none" 
	d="
M843.112183,554.788269 
	C857.220337,564.402954 862.916321,579.461975 858.544189,595.014587 
	C854.558777,609.191895 841.096069,619.618835 826.065796,620.169250 
	C810.243225,620.748718 796.671509,611.768005 791.129944,597.051575 
	C785.965759,583.337341 790.144409,567.971497 801.818787,557.747375 
	C812.757385,548.167603 828.511658,546.948486 843.112183,554.788269 
M794.995789,583.656128 
	C795.086670,601.311401 807.188232,614.104065 824.090637,614.412476 
	C839.469971,614.693176 853.061829,602.398438 853.940369,587.411377 
	C854.946533,570.247437 843.181458,556.742798 826.060120,555.408569 
	C810.434448,554.190857 796.876404,566.140381 794.995789,583.656128 
z"/>
<path fill="#3A2287" opacity="1.000000" stroke="none" 
	d="
M795.011353,583.208008 
	C796.876404,566.140381 810.434448,554.190857 826.060120,555.408569 
	C843.181458,556.742798 854.946533,570.247437 853.940369,587.411377 
	C853.061829,602.398438 839.469971,614.693176 824.090637,614.412476 
	C807.188232,614.104065 795.086670,601.311401 795.011353,583.208008 
M802.142395,577.062622 
	C801.958130,577.873596 801.783081,578.686768 801.588196,579.495178 
	C798.625916,591.782410 806.401794,604.950378 818.329834,607.842224 
	C831.295898,610.985718 844.121216,603.426514 847.304626,590.764465 
	C850.310059,578.809998 843.913757,566.817993 832.373718,562.771545 
	C820.178101,558.495178 808.291138,563.875854 802.142395,577.062622 
z"/>
<path fill="#FEFDFE" opacity="1.000000" stroke="none" 
	d="
M802.289307,576.692810 
	C808.291138,563.875854 820.178101,558.495178 832.373718,562.771545 
	C843.913757,566.817993 850.310059,578.809998 847.304626,590.764465 
	C844.121216,603.426514 831.295898,610.985718 818.329834,607.842224 
	C806.401794,604.950378 798.625916,591.782410 801.588196,579.495178 
	C801.783081,578.686768 801.958130,577.873596 802.289307,576.692810 
z"/>
</svg>